<?xml version="1.0" standalone="no"?>
<!DOCTYPE svg PUBLIC "-//W3C//DTD SVG 20010904//EN"
 "http://www.w3.org/TR/2001/REC-SVG-20010904/DTD/svg10.dtd">
<svg version="1.0" xmlns="http://www.w3.org/2000/svg"
 width="500.000000pt" height="500.000000pt" viewBox="0 0 500.000000 500.000000"
 preserveAspectRatio="xMidYMid meet">

<g transform="translate(0.000000,500.000000) scale(0.100000,-0.100000)"
fill="#61dafb" stroke="none">
<path d="M2465 4991 c-9 -9 -449 -264 -1210 -701 -159 -92 -434 -251 -610
-353 l-320 -186 -3 -1249 -2 -1250 77 -44 c43 -24 220 -127 393 -228 343 -199
667 -387 1288 -746 l404 -233 191 111 c280 163 659 382 922 534 127 73 412
238 635 367 l405 235 0 1252 0 1252 -345 200 c-190 110 -406 235 -480 277
-386 221 -1306 754 -1314 762 -13 11 -20 11 -31 0z m932 -1323 c-4 -227 -7
-523 -7 -658 l0 -245 -32 -14 c-18 -8 -91 -42 -163 -76 -71 -33 -150 -70 -175
-82 l-45 -21 -5 315 -5 314 -137 -108 -138 -108 0 -273 0 -273 -117 -56 c-236
-111 -284 -133 -294 -133 -5 0 -9 133 -9 338 l0 338 -137 65 -138 65 -3 -615
c-2 -413 1 -637 8 -681 51 -302 363 -480 660 -375 181 64 319 268 308 454 l-3
51 -140 -66 c-77 -36 -162 -76 -190 -89 -27 -13 -117 -55 -198 -94 -82 -39
-153 -71 -158 -71 -6 0 -8 95 -7 233 l3 232 85 42 c364 179 1022 485 1028 477
4 -5 5 -205 2 -444 l-6 -435 -27 -88 c-103 -334 -359 -573 -689 -642 -89 -19
-287 -19 -376 0 -328 68 -585 308 -689 640 l-28 90 -3 793 -3 794 -127 60
c-70 33 -129 61 -130 63 -10 10 27 45 177 169 90 75 171 136 180 136 10 0 182
-79 384 -175 201 -96 370 -175 375 -175 5 0 220 167 478 370 257 204 475 370
483 370 12 0 13 -58 8 -412z"/>
</g>
</svg>
